<svg xmlns="http://www.w3.org/2000/svg" version="1.1" width="600px" height="600px" viewBox="0 0 200 200" style="overflow:hidden!important;"><g id="svga-group-wrapper"><g id="svga-group-backs-single"><path id="SvgjsPath11278" d="M0 0h200v200H0V0z" fill="#ecf0f1" stroke-width="none" opacity="1"></path></g><g id="svga-group-humanwrap-move" transform="matrix(1,0,0,1,0,2)"><g id="svga-group-humanwrap" transform="matrix(1.1000004000000003,0,0,1.1000004000000003,-10.000038283379396,-12.816551357553152)"><g id="svga-group-hair-back-move" transform="matrix(1,-2.856368900253737e-18,2.856368900253737e-18,1,0,0)"><g id="svga-group-hair-back"></g></g><g id="svga-group-humanbody-back"><path id="SvgjsPath11221" d="m170 180.3-27.3-6.9-18-9.9-1.5-28.2H76.8l-1.5 28.2-18 9.9-27.3 6.9-9.1 19.7-3 20h164.2l-3-20z" fill="#d0a994" stroke-width="none" opacity="1" stroke="none"></path><path id="SvgjsPath11222" d="m76.8 135.3-1.5 28.2-18 9.9-27.3 6.9-9.1 19.7-3 20h14.6v-20l2.7-17.7 23.8-6.4 24.7-8.3 3.5-32.3z" fill="#b1795b" stroke-width="none" opacity="1" stroke="none"></path></g><g id="svga-group-chinshadow-single"><path id="SvgjsPath11217" d="m121.5 149.1 2.2-3.8-.5-10H76.8l-.8 15.9 13.8 9.6h14.8z" fill="#a26443" stroke-width="none" opacity="1" stroke="none"></path></g><g id="svga-group-humanbody-front"><path id="SvgjsPath11223" d="m92.8 168.3 2 7.9 6.9 4.6s-8.5-3-8.7-3.6c-.2-.6-.2-8.9-.2-8.9z" fill="#b1795b" stroke-width="none" opacity="1" stroke="none"></path></g><g id="svga-group-clothes-single"><path id="SvgjsPath11104" d="m184.7 220-8.1-35.4-4.8-3.5-1.5-2-17.6-6.8-8.6-15.9-3.8-1.6-7.3-9-9.4-3.1.6 11-1.3 10.1-8.9 9.1-8.1 9.8-2.5 5-1.7-3.2-4.5-3.8-11.2-7.8-8.9-9.1-1.3-10.1.6-11-9.4 3.1-7.3 9-3.8 1.6-8.6 15.9-17.6 6.8-1.5 2-4.8 3.5-8.1 35.4z" fill="#386e77" stroke-width="none" opacity="1"></path><path id="SvgjsPath11105" d="m134.2 188.8-15 3.8-9.9.2-.1-1.7 1.3-.1-.7-2.3-3.2.3-.1 2.3.8-.1v1.6h-2.1l2.1.2.1 5.9-.7 7.4 1.6 7.5.3 4.8 2.6-1-.3-5.1-2-6.6.9-7.3-.3-5.6 9.7.7 15.8-4.1 16-12.2 2-5.3-3.2 4.1-15.6 12.6zm-32.2 4.3-2.5-.2.2-1.8.6.1 1.2-2.2-3.3-2.3-2 1.9 1.2 2.3h.1v1.9l-1.5-.1-26-6.9-15.8-11 1.9-11L59 160l11 18.7 17.7 7.2-14.8-7.9-8.1-12.4 2.2-19.8-7.2 8.9-3.8 1.7-8.6 15.8-17.7 6.8-1.5 2-4.8 3.5-8.1 35.5h10.2l1.3-14.3 3.3-18.1 2.9 2.6 2.6 13.9 1.2 15.9v-16.2l-2.6-15.3-2.2-4.3 1.4-1.7 16.7-6L69 187.3l26.8 6.2 1.5-.1-.1 3.4 1.4 9.9s-3 9.8-2.8 9.9c.3.2 1.7 2.8 1.8 2.6.1-.3 3.5-12.5 3.5-12.5l-1.9-10.4.3-3.1 2.5-.1zm-26.2-39.4.6-10.8-4 5.1-.7 8.4 5.4 7.5-1.3-10.2zm49.1 11 6.7-6.9-.7-10.8-7.3-4.3.6 11-1.3 10.2-8.9 9.1-8.1 9.8-2.5 5 6.5-8.5 15-14.6zm-18.1 22.4 22.9-5 11.2-13.4 3.2-12.3-3.8-1.7-2.4 13-8.6 13.1-22.5 6.3zm56.5 9.7.8 21.6.5-20.4 4.5-13.1-5.8 11.9z" fill="#265e68" stroke-width="none" opacity="1"></path><path id="SvgjsPath11106" d="m137.4 165.7 1.2-10.5-6-6.2 1.4 10.3-10.3 16.1-14 8.7 18.6-4.5 9.1-13.9zm13.6 6.2-6.2-10.1c.2.6-2.1 9.5-2.1 9.5l-10.3 12.4-15.5 7.2 16.7-3.1 15.7-12.6 1.7-3.3zm24.8 14-3.7-1.9-2.3 5.6 3.9 9.3 3.9 19.2 4.1.2-5.9-32.4zm-7.7-6.5-14.4-4.8-2.5 5-8.3 5.6 19.4.6 4.5 1.2 3.7-5.6-2.4-2zM85 175.6l-10.1-10.3-3.7-7.4-1.4.6 3.1 11.6 11.6 9.1 14.4 5.6 3.1 3.9-3.3-5.6-13.7-7.5zm43.1-12.5-16.7 16.1-6.6 8.5 13.4-11.6 9.9-13z" fill="#4d7e86" stroke-width="none" opacity="1"></path></g><g id="svga-group-head" transform="matrix(1,-2.856368900253737e-18,2.856368900253737e-18,1,0,0)"><g id="svga-group-ears-left-move" transform="matrix(1,0,0,1,0,0)"><g id="svga-group-ears-left"><path id="SvgjsPath11119" d="M60.9 93s-5.5-3-7.7-3.9c0 0-3.9 5.4-5.1 7.2 0 0 3.1 14.7 3.9 17.3l5 6.5 5.4-1.7 4.2-14.2L60.9 93z" fill="#d0a994" stroke-width="none" opacity="1" stroke="none"></path><path id="SvgjsPath11120" d="M58.8 104.7c-.2-.4-6-10-6-10l-2.3 7.9 2.6-2.4 1.6 2.9s-.3 5-.2 5.5c0 .5 2.4 4.3 2.4 4.3l1.9-8.2z" fill="#b1795b" stroke-width="none" opacity="1" stroke="none"></path><path id="SvgjsPath11121" d="m58.4 98-5.2-8.9c2.2.9 7.7 1.8 7.7 1.8l5.7 13.3-4.2 14.2-5.4 1.7 3.6-3.4L58.4 98z" fill="#c19076" stroke-width="none" opacity="1" stroke="none"></path></g></g><g id="svga-group-ears-right-move" transform="matrix(1,0,0,1,0,0)"><g id="svga-group-ears-right"><path id="SvgjsPath11122" d="M139.1 93s5.5-3 7.7-3.9c0 0 3.9 5.4 5.1 7.2 0 0-3.1 14.7-3.9 17.3l-5 6.5-5.4-1.7-4.2-14.2 5.7-11.2z" fill="#d0a994" stroke-width="none" opacity="1" stroke="none"></path><path id="SvgjsPath11123" d="M141.2 104.7c.2-.4 6-10 6-10l2.3 7.9-2.6-2.4-1.6 2.9s.3 5 .2 5.5c0 .5-2.4 4.3-2.4 4.3l-1.9-8.2z" fill="#b1795b" stroke-width="none" opacity="1" stroke="none"></path><path id="SvgjsPath11124" d="m141.6 98 5.2-8.9c-2.2.9-7.7 1.8-7.7 1.8l-5.7 13.3 4.2 14.2 5.4 1.7-3.6-3.4 2.2-18.7z" fill="#c19076" stroke-width="none" opacity="1" stroke="none"></path></g></g><g id="svga-group-faceshape-wrap"><g id="svga-group-faceshape-single"><path id="SvgjsPath11203" d="M138.1 60c-6.9-11.6-19.7-19.5-19.7-19.5-7.2-1.5-18.4-2.3-18.4-2.3s-11.1.8-18.4 2.3c0 0-12.8 7.9-19.7 19.5 0 0-5.1 14.5-5.3 24.8l4.9 33.9 14.2 24.8 16.9 11.7h14.9l16.9-11.7 14.2-24.8 4.9-33.9c-.3-10.3-5.4-24.8-5.4-24.8z" fill="#d0a994" stroke-width="none" opacity="1" stroke="none"></path><path id="SvgjsPath11204" d="m92.7 152.7-14.6-12.3s-11.4-20.9-11.8-21.7c-.4-.9-5-34.3-5-34.3.2-4.8 4.5-21.5 5-22.2 2.1-3.2 16.5-18 16.5-18l17.1-4.1 18.5.4c-7.2-1.5-18.4-2.3-18.4-2.3s-11.1.8-18.4 2.3c0 0-12.8 7.9-19.7 19.5 0 0-5.1 14.5-5.3 24.8l4.9 33.9 14.2 24.8 16.9 11.7h14.9l16.9-11.7-18 10.4-13.7-1.2z" fill="#b1795b" stroke-width="none" opacity="1" stroke="none"></path></g></g><g id="svga-group-mouth-single-move" transform="matrix(1,0,0,1,0,0)"><g id="svga-group-mouth-single"><path id="SvgjsPath11305" d="m84.24 127.12 9.86 1.08 6.5 2.2 6-2.7 9.84-.08-10.24-1.72H93.3z" fill="#da7c87" stroke-width="none" opacity="1" transform="translate(0 2)" stroke="none"></path><path id="SvgjsPath11306" d="m88.92 131.27 6.38 2.43 10.5.3 4.52-2.63L106 135H95.2z" fill="#b1795b" stroke-width="none" opacity="1" transform="translate(0 2)" stroke="none"></path></g></g><g id="svga-group-eyes-left-move" transform="matrix(1,0,0,1,0,0)"><g id="svga-group-eyes-left"><g id="svga-group-eyesback-left"><path id="SvgjsPath11159" d="M90.5 99.6s-.5-5.6-1.8-7.4c-.2-.2-14.7.2-17.9.3L72 99l1.9 1.5c0 .1 15.6-.4 16.6-.9z" fill="#ffffff" stroke-width="none" opacity="1"></path></g><g id="svga-group-eyesiriswrapper-left" transform="matrix(1,0,0,1,0,0)"><g id="svga-group-eyesiriscontrol-left" transform="matrix(1,0,0,1,0,0)"><g id="svga-group-eyesiris-left"><path id="SvgjsPath11238" d="m76.76 97.53-.81-3.95 2.22-3.37 3.94-.81 3.37 2.22.81 3.95-2.22 3.36-3.95.81z" fill="#4e60a3" stroke-width="none" opacity="1"></path><path id="SvgjsPath11239" d="m80 97.28-1.59-1.59v-2.24L80 91.87h2.24l1.58 1.58v2.24l-1.58 1.59z" fill="#000000" stroke-width="none" opacity="1"></path><path id="SvgjsPath11240" d="m85.71 91.46-3.55-2.34-4.16.85-2.34 3.55.85 4.16 3.55 2.34 4.16-.85 2.34-3.55-.85-4.16zm-4.66 5.99.22 1.79-.58.12v-1.91h.36zm.17 0h.39l.46 1.62-.63.13-.22-1.75zm.57 0h.42l.81 1.43-.78.16-.45-1.59zm.38-.35h-2.1l-1.48-1.48v-2.1l1.48-1.48h2.1l1.48 1.48v2.1l-1.48 1.48zm-4 1.04 1.11-1.34.26.26c-.26.52-.6 1.2-.75 1.49l-.62-.41zm.99-1.46-1.14 1.36-.54-.35 1.33-1.35.35.34zm.51.51.24.24-.28 1.67-.7-.46c.11-.2.32-.61.74-1.45zm-2.89-.88-.18-.86 1.64-.23v.41l-1.46.68zm1.46-1.78-1.85-.11-.12-.57 1.97.23v.45zm0 .18v.34l-1.67.23-.14-.68 1.81.11zm.11-1.44-1.63-.38.71-1.07 1.41.97-.49.48zm-.27-2.45c.17.18.57.53 1.45 1.28l-.57.57-1.44-.99.56-.86zm2.73.87c-.06-.38-.2-1.24-.27-1.7l.74-.15v1.85h-.47zm-.18 0h-.36l-.85-1.47.95-.2c.09.6.21 1.33.26 1.67zM84 93.77l1.58-.37.14.7-1.72.12v-.45zm0-.18v-.21l-.27-.27 1.55-1.2.27 1.33-1.55.35zm-.4-.61-.37-.37 1.29-1.31.67.44-1.59 1.24zm-.49-.49-.49-.49.73-1.47 1.02.67-1.26 1.29zm-.62-.62-.17-.17h-.27l.23-1.87.93.61-.72 1.43zm.7 4.7 1.25 1.32-.39.6-1.22-1.56.36-.36zm.13-.12.24-.24 1.49.78-.5.76-1.23-1.3zm.37-.37.31-.32v-.11c.34.09 1.04.29 1.62.46l-.47.72-1.46-.75zm.31-1.69 1.76-.11.13.64-1.89-.08v-.45zm-1.89-4.68-.25 1.98h-.42V89.8l.61-.13.06.04zm-2.87.55.83 1.43h-.14l-.28.28c-.54-.47-1.25-1.08-1.47-1.3l.15-.22.91-.19zm-2.63 2.78 1.63.38v.48l-2-.23-.01-.04.38-.59zm.2 3.45 1.47-.68.41.41-1.35 1.38-.34-.23-.19-.88zm2.98 2.72.29-1.76h.45v1.94l-.35.07-.39-.25zm3.41-.37-.82-1.46.33-.33 1.24 1.59-.04.06-.71.14zm2.51-2.88c-.58-.17-1.35-.39-1.72-.49v-.46l1.93.07.09.43-.3.45z" fill="#253984" stroke-width="none" opacity="1"></path><path id="SvgjsPath11241" d="m80.63 91.91-.97-.29-.72.7.23.97.97.29.72-.7z" fill="#ffffff" stroke-width="none" opacity="1"></path><path id="SvgjsPath11242" d="m82.79 96.11-.59-.34-.59.34v.68l.59.34.59-.34z" fill="#ffffff" stroke-width="none" opacity="1"></path></g></g></g><g id="svga-group-eyesfront-left"><path id="SvgjsPath11167" d="M67.1 89.3v11.9l7.9 8.4h11.2l7.9-8.4V89.3l-7.9-8.4H75l-7.9 8.4zm3.7 3.2c3.2-.1 17.7-.5 17.9-.3 1.3 1.8 1.8 7.4 1.8 7.4-1 .5-16.6 1-16.6 1L72 99l-1.2-6.5z" fill="#d0a994" stroke-width="none" opacity="1" stroke="none"></path><path id="SvgjsPath11168" d="m89.8 95.1.3 4.3-3.1.5-.3-.5-2.3.8h2.1l.7 1.2 4.1-.1z" fill="#c19076" stroke-width="none" opacity="1" stroke="none"></path><path id="SvgjsPath11169" d="m90.3 98.1-1.9-5.3H71.1l.2 1.6-1.4-.5-.6-1.9 21.2-.2-.9.7 1.3 7.1z" fill="#000000" stroke-width="none" opacity="1" stroke="none"></path></g></g></g><g id="svga-group-eyes-right-move" transform="matrix(1,0,0,1,0,0)"><g id="svga-group-eyes-right"><g id="svga-group-eyesback-right"><path id="SvgjsPath11160" d="M109.5 99.6s.5-5.6 1.8-7.4c.2-.2 14.6.2 17.9.3L128 99l-1.9 1.5c0 .1-15.6-.4-16.6-.9z" fill="#ffffff" stroke-width="none" opacity="1"></path></g><g id="svga-group-eyesiriswrapper-right" transform="matrix(1,0,0,1,0,0)"><g id="svga-group-eyesiriscontrol-right" transform="matrix(1,0,0,1,0,0)"><g id="svga-group-eyesiris-right"><path id="SvgjsPath11243" d="m114.52 97.53-.81-3.95 2.22-3.37 3.95-.81 3.36 2.22.81 3.95-2.22 3.36-3.94.81z" fill="#4e60a3" stroke-width="none" opacity="1"></path><path id="SvgjsPath11244" d="m117.76 97.28-1.58-1.59v-2.24l1.58-1.58H120l1.59 1.58v2.24L120 97.28z" fill="#000000" stroke-width="none" opacity="1"></path><path id="SvgjsPath11245" d="m123.47 91.46-3.55-2.34-4.16.85-2.34 3.55.85 4.16 3.55 2.34 4.16-.85 2.34-3.55-.85-4.16zm-4.66 5.99.22 1.79-.58.12v-1.91h.36zm.18 0h.39l.46 1.62-.63.13-.22-1.75zm.57 0h.42l.81 1.43-.78.16-.45-1.59zm.37-.35h-2.1l-1.48-1.48v-2.1l1.48-1.48h2.1l1.48 1.48v2.1l-1.48 1.48zm-4 1.04 1.11-1.34.26.26c-.26.52-.6 1.2-.75 1.49l-.62-.41zm.99-1.46-1.14 1.36-.54-.35 1.33-1.35.35.34zm.51.51.24.24-.28 1.67-.7-.46c.12-.2.32-.61.74-1.45zm-2.89-.88-.18-.86 1.64-.23v.41l-1.46.68zm1.46-1.78-1.85-.11-.12-.57 1.97.23v.45zm0 .18v.34l-1.67.23-.14-.68 1.81.11zm.11-1.44-1.63-.38.71-1.07 1.41.97-.49.48zm-.27-2.45c.17.18.57.53 1.45 1.28l-.57.57-1.44-.99.56-.86zm2.73.87c-.06-.38-.2-1.24-.27-1.7l.74-.15v1.85h-.47zm-.18 0h-.36l-.85-1.47.95-.2c.09.6.21 1.33.26 1.67zm3.37 2.08 1.58-.37.14.7-1.72.11v-.44zm0-.18v-.21l-.27-.27 1.55-1.2.27 1.33-1.55.35zm-.4-.61-.37-.37 1.29-1.31.67.44-1.59 1.24zm-.49-.49-.49-.49.73-1.47 1.02.67-1.26 1.29zm-.62-.62-.17-.17h-.27l.23-1.87.93.61-.72 1.43zm.71 4.7 1.25 1.32-.39.6-1.22-1.56.36-.36zm.12-.12.24-.24 1.49.78-.5.76-1.23-1.3zm.37-.37.31-.31v-.11c.34.09 1.04.29 1.62.46l-.47.72-1.46-.76zm.31-1.69 1.76-.11.13.64-1.89-.07v-.46zm-1.88-4.68-.25 1.98h-.42V89.8l.61-.13.06.04zm-2.88.55.83 1.43h-.14l-.28.28c-.54-.47-1.25-1.08-1.47-1.3l.15-.22.91-.19zm-2.62 2.78 1.63.38v.48l-2-.23-.01-.04.38-.59zm.19 3.45 1.47-.68.41.41-1.35 1.38-.34-.23-.19-.88zm2.98 2.72.29-1.76h.45v1.94l-.35.07-.39-.25zm3.41-.37-.82-1.46.33-.33 1.24 1.59-.04.06-.71.14zm2.52-2.88c-.58-.17-1.35-.39-1.72-.49v-.46l1.93.07.09.43-.3.45z" fill="#253984" stroke-width="none" opacity="1"></path><path id="SvgjsPath11246" d="m118.39 91.91-.96-.29-.73.7.24.97.96.29.73-.7z" fill="#ffffff" stroke-width="none" opacity="1"></path><path id="SvgjsPath11247" d="m120.55 96.11-.59-.34-.59.34v.68l.59.34.59-.34z" fill="#ffffff" stroke-width="none" opacity="1"></path></g></g></g><g id="svga-group-eyesfront-right"><path id="SvgjsPath11170" d="M125 80.8h-11.2l-7.9 8.4v11.9l7.9 8.4H125l7.9-8.4V89.3l-7.9-8.5zm3 18.2-1.9 1.5s-15.6-.5-16.6-1c0 0 .5-5.6 1.8-7.4.2-.2 14.6.2 17.9.3L128 99z" fill="#d0a994" stroke-width="none" opacity="1" stroke="none"></path><path id="SvgjsPath11173" d="m110.2 95.1-.3 4.3 3.1.5.3-.5 2.3.8h-2.1l-.7 1.2-4.1-.1z" fill="#c19076" stroke-width="none" opacity="1" stroke="none"></path><path id="SvgjsPath11174" d="m109.7 98.1 1.9-5.3h17.3l-.2 1.6 1.4-.5.6-1.9-21.2-.2.9.7-1.3 7.1z" fill="#000000" stroke-width="none" opacity="1" stroke="none"></path></g></g></g><g id="svga-group-facehighlight-single"></g><g id="svga-group-eyebrows-left-move" transform="matrix(1,0,0,1,0,0)"><g id="svga-group-eyebrows-left-rotate" transform="matrix(1,1.7453292519943295e-9,-1.7453292519943295e-9,1,1.470439912054644e-7,-1.3823007805058296e-7)"><g id="svga-group-eyebrows-left"><path id="SvgjsPath11082" d="m94 85.8-.6 2.4-2.4 1.6-13.1-7.1-7.9-.2-5.6 4.1 4.8-6 8.5-1.9 10.2 3.5z" fill="#2a232b" stroke-width="none" opacity="1"></path><path id="SvgjsPath11083" d="m90.4 83.7.8.5-.5 3.2-.3-3.7zm-6.2-2.8 1.5 3.1-2.1-3.2.6.1zm3.7 1.3.4.2c.2 1.6.5 4.3.5 4.3L87.3 82l.6.2zm-6.3-2.1.8 1.7-2.2-2.2 1.4.5zM69 82.2c.1 0 0 0 0 0zm-1.8 1c.8-.4 1.5-.8 1.8-.9-.3.2-1.6 1.3-2.9 2.2l1.1-1.3zm6.7-3.6 1.8 2-2.3-1.9.5-.1zm-4.7 1 1.7-.4 2.6.9c.1 0-2.4-.3-4.3-.5z" fill="#3a353a" stroke-width="none" opacity="1"></path></g></g></g><g id="svga-group-eyebrows-right-move" transform="matrix(1,0,0,1,0,0)"><g id="svga-group-eyebrows-right-rotate" transform="matrix(1,1.7453292519943295e-9,-1.7453292519943295e-9,1,1.470439912054644e-7,-2.10835779057561e-7)"><g id="svga-group-eyebrows-right"><path id="SvgjsPath11084" d="m106 85.8.6 2.4 2.4 1.6 13.1-7.1 7.9-.2 5.6 4.1-4.8-6-8.5-1.9-10.2 3.5z" fill="#2a232b" stroke-width="none" opacity="1"></path><path id="SvgjsPath11085" d="m109.6 83.7-.8.5.5 3.2.3-3.7zm6.2-2.8-1.5 3.1 2.1-3.2-.6.1zm-3.7 1.3-.4.2c-.2 1.6-.5 4.3-.5 4.3l1.5-4.8-.6.3zm6.3-2.1-.8 1.7 2.2-2.2-1.4.5zm12.6 2.1c-.1 0 0 0 0 0zm1.8 1c-.8-.4-1.5-.8-1.8-.9.4.2 1.6 1.3 2.9 2.2l-1.1-1.3zm-6.7-3.6-1.8 2 2.3-1.9-.5-.1zm4.7 1-1.7-.4-2.6.9c-.1 0 2.3-.3 4.3-.5z" fill="#3a353a" stroke-width="none" opacity="1"></path></g></g></g><g id="svga-group-beardwrap"><g id="svga-group-beard-single-move" transform="matrix(1,0,0,1,0,-2)"><g id="svga-group-beard-single"></g></g></g><g id="svga-group-mustache-single-move" transform="matrix(1,0,0,1,0,0)"><g id="svga-group-mustache-single"></g></g><g id="svga-group-nose-single-move" transform="matrix(1,0,0,1,0,0)"><g id="svga-group-nose-single"><path id="SvgjsPath11283" d="m108.74 116.21-4.95 1.23-1.77 2.5-2.13.32-2-.49-1.68-2.33-4.88-1.27-.08-3.53 2.5-2.9 2.09-1.64h9.17l3.9 4.59z" fill="#d0a994" stroke-width="none" opacity="1" transform="translate(0 1)" stroke="none"></path><path id="SvgjsPath11284" d="m97.78 92.85-2.11 5.62.92 5.82-1.39 4.5h2.91l2.05-1.39-2.51.59-1.19-.2 1.06-4.03-1.19-5.62 1.65-4.36z" fill="#b1795b" stroke-width="none" opacity="1" transform="translate(0 1)" stroke="none"></path><path id="SvgjsPath11285" d="m109.23 112.62-3.16-3.57.26.99 2.17 2.64-.26 3.24-2.96.86.26-.73 1.91-.73.2-.53-2.63.26-3.1 4.36-1.91.33-1.81-.33-3.1-4.36-2.63-.26.2.53 1.91.73.26.73-2.96-.86-.26-3.24 2.17-2.64.26-.99-3.16 3.57s-.2 3.9.07 3.9c.26 0 5.2 1.26 5.2 1.26l1.78 2.58 2.08.26 2.17-.26 1.78-2.58s4.94-1.26 5.2-1.26c.26 0 .06-3.9.06-3.9z" fill="#b1795b" stroke-width="none" opacity="1" transform="translate(0 1)" stroke="none"></path><path id="SvgjsPath11286" d="m102.33 93 2.09 5.28-.88 3.46.14-4z" fill="#b1795b" stroke-width="none" opacity="1" transform="translate(0 1)" stroke="none"></path><path id="SvgjsPath11287" d="M97.03 109.7h7.08l3.17 3.05-4.64-.12-1.83 2.2-3.78-5.13z" fill="#d8b6a4" stroke-width="none" opacity="1" transform="translate(0 1)" stroke="none"></path></g></g><g id="svga-group-hair-front"><path id="SvgjsPath11327" d="M143.01 63.98c-2.54-5.83-19.15-23.84-19.15-23.84L100 36.33l-23.86 3.8s-16.61 18-19.15 23.84l-.93 24.3 4.58 4.03h2.56l.73-24.9 17.21-16.84 7.32 8.24L100 60.55l11.54-1.75 7.32-8.24 17.21 16.84.73 24.9h2.56l4.58-4.03-.93-24.29z" fill="#000000" stroke-width="none" opacity="1" stroke="none"></path><path id="SvgjsPath11328" d="M123.86 40.14 100 36.33l-9.09 1.45-11.22 4.57s8.72 13.88 9.72 13.88c.99 0 12.49 1.78 13.48 1.59.99-.2 8.33-.99 8.33-.99l8.33-7.53 18.04 18.24.92 24.77h.86l4.58-4.03-.93-24.3c-2.55-5.84-19.16-23.84-19.16-23.84z" fill="#000000" stroke-width="none" opacity="1" stroke="none"></path></g><g id="svga-group-glasses-single-move" transform="matrix(1,0,0,1,0,0)"><g id="svga-group-glasses-single"></g></g></g></g></g><rect id="svga-credit-rect" width="200" height="15" x="0" y="185" fill="#ecf0f1" opacity="0.5" style="display: none;"></rect><text id="svga-credit-text" font-family="Avenir Next, Roboto, Helvetica, Arial, sans-serif" font-size="10px" text-anchor="start" font-weight="400" size="10px" anchor="start" weight="400" fill="#333333" x="33.40447998046875" y="182.60824704170227" style="display: none;"><tspan id="SvgjsTspan11076" dy="13" x="33.40447998046875">Created on AvatarMaker.com</tspan></text></g><defs id="SvgjsDefs11023"></defs></svg>